<svg width="73.000000" height="30.000000" viewBox="0 0 73 30" fill="none" xmlns="http://www.w3.org/2000/svg" xmlns:xlink="http://www.w3.org/1999/xlink">
	<desc>
			Created with Pixso.
	</desc>
	<defs>
		<clipPath id="clip48_4606">
			<rect id="Logo" width="73.000000" height="30.000000" fill="white" fill-opacity="0"/>
		</clipPath>
	</defs>
	<g clip-path="url(#clip48_4606)">
		<path id="Vector" d="M3.54 18.53C4.31 18.69 5.11 18.62 5.83 18.31C6.56 18.01 7.16 17.48 7.55 16.82L11.33 10.45C11.69 10.53 12.03 10.66 12.34 10.83C13.19 11.31 13.8 12.09 14.06 13C14.31 13.91 14.18 14.88 13.69 15.7L6.85 27.2C6.61 27.6 6.29 27.96 5.91 28.24C5.53 28.53 5.09 28.74 4.62 28.86C4.16 28.98 3.67 29.01 3.19 28.95C2.71 28.89 2.25 28.74 1.83 28.5C0.99 28.02 0.37 27.25 0.12 26.33C-0.13 25.42 0 24.45 0.49 23.64L3.54 18.53Z" fill="#B7B7DB" fill-opacity="1.000000" fill-rule="evenodd"/>
		<path id="Vector" d="M13.04 0.47C12.62 0.24 12.16 0.09 11.68 0.03C11.2 -0.03 10.71 0 10.25 0.12C9.78 0.24 9.34 0.45 8.96 0.73C8.58 1.02 8.26 1.37 8.02 1.78L1.17 13.29C0.68 14.11 0.55 15.08 0.8 15.99C1.06 16.9 1.67 17.68 2.52 18.16C2.83 18.33 3.18 18.45 3.53 18.53L7.33 12.14C7.72 11.48 8.32 10.95 9.04 10.65C9.76 10.34 10.57 10.26 11.34 10.43L14.38 5.32C14.86 4.5 14.99 3.54 14.74 2.63C14.49 1.73 13.88 0.95 13.04 0.47Z" fill="#BDDBC7" fill-opacity="1.000000" fill-rule="nonzero"/>
		<path id="Vector" d="M20.26 14.41C20.26 12.04 21 10.07 22.47 8.51C23.17 7.75 24.04 7.14 25.01 6.74C25.98 6.33 27.03 6.14 28.1 6.16C29.22 6.15 30.33 6.41 31.32 6.91C32.31 7.42 33.16 8.15 33.8 9.04L33.8 6.42L36.33 6.42L36.33 22.37C36.33 24.66 35.61 26.5 34.17 27.9C32.72 29.3 30.8 30 28.41 30C26.31 30 24.59 29.5 23.25 28.49C22.6 28.01 22.06 27.42 21.66 26.75C21.25 26.07 21 25.32 20.9 24.55L23.49 24.05C23.64 25.08 24.2 26 25.04 26.64C25.9 27.29 27.02 27.61 28.41 27.61C30.02 27.61 31.32 27.17 32.31 26.27C33.3 25.38 33.79 24.13 33.79 22.52L33.79 19.77C33.14 20.64 32.29 21.36 31.31 21.87C30.33 22.36 29.23 22.62 28.12 22.62C27.07 22.64 26.01 22.45 25.04 22.05C24.07 21.64 23.2 21.04 22.5 20.28C21 18.73 20.26 16.78 20.26 14.41ZM22.91 14.41C22.91 16.14 23.42 17.55 24.43 18.65C24.92 19.18 25.53 19.6 26.21 19.89C26.9 20.17 27.64 20.3 28.38 20.28C29.12 20.3 29.85 20.16 30.53 19.88C31.21 19.6 31.82 19.17 32.3 18.63C33.29 17.55 33.78 16.15 33.78 14.41C33.78 12.68 33.29 11.26 32.3 10.16C31.81 9.62 31.21 9.2 30.53 8.91C29.85 8.63 29.12 8.5 28.38 8.52C27.64 8.5 26.9 8.63 26.22 8.91C25.54 9.2 24.93 9.62 24.44 10.16C23.41 11.35 22.86 12.86 22.91 14.41Z" fill="#F8F7F3" fill-opacity="1.000000" fill-rule="nonzero"/>
		<path id="Vector" d="M41.56 22.53L39.03 22.53L39.03 6.42L41.51 6.42L41.51 8.52C41.99 7.81 42.63 7.22 43.4 6.81C44.19 6.38 45.09 6.16 46 6.18C47.02 6.16 48.02 6.41 48.9 6.9C49.76 7.39 50.45 8.13 50.87 9.01C51.37 8.15 52.08 7.44 52.96 6.93C54.05 6.32 55.33 6.06 56.59 6.2C57.85 6.34 59.03 6.86 59.96 7.7C61.03 8.75 61.57 10.29 61.57 12.31L61.57 22.54L59.03 22.54L59.03 12.44C59.03 11.17 58.71 10.21 58.06 9.55C57.73 9.22 57.33 8.96 56.89 8.79C56.44 8.61 55.96 8.54 55.49 8.56C54.97 8.54 54.45 8.63 53.96 8.8C53.47 8.98 53.03 9.25 52.65 9.6C51.92 10.28 51.55 11.26 51.55 12.54L51.55 22.53L49.04 22.53L49.04 12.44C49.04 11.17 48.72 10.21 48.07 9.55C47.75 9.22 47.35 8.96 46.91 8.79C46.46 8.62 45.99 8.54 45.51 8.56C44.98 8.54 44.46 8.64 43.97 8.83C43.48 9.02 43.04 9.31 42.68 9.68C41.93 10.41 41.56 11.45 41.55 12.78L41.56 22.53Z" fill="#F8F7F3" fill-opacity="1.000000" fill-rule="nonzero"/>
		<path id="Vector" d="M61.6 8.66L61.6 6.42L64.37 6.42L64.37 3.57L66.91 3.57L66.91 6.42L72.87 6.42L72.87 8.66L66.91 8.66L66.91 17.56C66.91 18.55 67.14 19.28 67.59 19.75C68.05 20.22 68.75 20.44 69.69 20.43C70.53 20.39 71.36 20.2 72.13 19.87L72.71 22C71.65 22.49 70.5 22.75 69.32 22.78C67.75 22.78 66.53 22.36 65.67 21.52C64.8 20.67 64.37 19.49 64.37 17.97L64.37 8.66L61.6 8.66Z" fill="#F8F7F3" fill-opacity="1.000000" fill-rule="nonzero"/>
	</g>
</svg>
