<svg width="96.000000" height="41.000000" viewBox="0 0 96 41" fill="none" xmlns="http://www.w3.org/2000/svg" xmlns:xlink="http://www.w3.org/1999/xlink">
	<desc>
			Created with Pixso.
	</desc>
	<defs>
		<clipPath id="clip1171_47580">
			<rect id="Logo" width="96.000000" height="41.000000" fill="white" fill-opacity="0"/>
		</clipPath>
	</defs>
	<rect id="Logo" width="96.000000" height="41.000000" fill="#FFFFFF" fill-opacity="0"/>
	<g clip-path="url(#clip1171_47580)">
		<path id="Vector" d="M4.65 25.32C5.67 25.55 6.73 25.45 7.67 25.03C8.63 24.61 9.42 23.9 9.92 22.99L14.91 14.28C15.37 14.39 15.82 14.57 16.24 14.81C17.35 15.46 18.16 16.52 18.49 17.77C18.82 19.01 18.64 20.34 18 21.45L9.01 37.17C8.69 37.73 8.27 38.21 7.77 38.6C7.27 38.99 6.69 39.27 6.08 39.44C5.46 39.6 4.82 39.65 4.2 39.56C3.57 39.48 2.96 39.27 2.41 38.95C1.3 38.3 0.49 37.24 0.16 35.99C-0.17 34.75 0 33.42 0.64 32.3L4.65 25.32Z" fill="#B7B7DB" fill-opacity="1.000000" fill-rule="evenodd"/>
		<path id="Vector" d="M17.15 0.65C16.6 0.33 15.99 0.12 15.36 0.04C14.73 -0.04 14.09 0 13.48 0.16C12.86 0.33 12.29 0.61 11.78 1C11.28 1.39 10.86 1.88 10.55 2.43L1.54 18.17C0.9 19.29 0.73 20.61 1.06 21.86C1.39 23.1 2.2 24.16 3.32 24.82C3.73 25.05 4.18 25.22 4.65 25.32L9.64 16.59C10.15 15.69 10.94 14.97 11.89 14.55C12.84 14.13 13.9 14.03 14.91 14.26L18.92 7.27C19.54 6.15 19.71 4.83 19.39 3.6C19.05 2.36 18.25 1.3 17.15 0.65Z" fill="#BDDBC7" fill-opacity="1.000000" fill-rule="nonzero"/>
		<path id="Vector" d="M26.64 19.7C26.64 16.45 27.6 13.76 29.54 11.64C30.46 10.59 31.61 9.76 32.89 9.21C34.17 8.66 35.55 8.39 36.94 8.42C38.42 8.41 39.88 8.76 41.18 9.45C42.49 10.15 43.6 11.14 44.45 12.36L44.45 8.77L47.78 8.77L47.78 30.57C47.78 33.71 46.82 36.23 44.92 38.13C43.03 40.04 40.5 41 37.36 41C34.6 41 32.34 40.31 30.57 38.93C29.71 38.29 29 37.48 28.47 36.55C27.95 35.63 27.61 34.61 27.49 33.55L30.89 32.87C31.09 34.27 31.82 35.54 32.92 36.41C34.05 37.3 35.53 37.74 37.36 37.74C39.48 37.74 41.18 37.13 42.49 35.91C43.78 34.68 44.43 32.97 44.44 30.78L44.44 27.02C43.58 28.21 42.46 29.19 41.17 29.88C39.89 30.56 38.44 30.91 36.98 30.91C35.59 30.95 34.21 30.68 32.93 30.13C31.65 29.58 30.51 28.76 29.58 27.72C27.62 25.6 26.64 22.93 26.64 19.7ZM30.13 19.7C30.13 22.06 30.79 23.99 32.12 25.49C32.77 26.22 33.57 26.79 34.47 27.18C35.37 27.56 36.34 27.75 37.32 27.71C38.29 27.75 39.26 27.56 40.15 27.17C41.04 26.78 41.83 26.2 42.47 25.46C43.78 23.99 44.42 22.07 44.42 19.7C44.42 17.33 43.78 15.39 42.47 13.89C41.83 13.15 41.04 12.57 40.15 12.18C39.25 11.79 38.29 11.61 37.32 11.65C36.34 11.61 35.37 11.8 34.48 12.18C33.58 12.57 32.78 13.15 32.14 13.89C30.78 15.51 30.07 17.58 30.13 19.7Z" fill="#202020" fill-opacity="1.000000" fill-rule="nonzero"/>
		<path id="Vector" d="M54.65 30.79L51.33 30.79L51.33 8.77L54.6 8.77L54.6 11.65C55.21 10.67 56.07 9.87 57.07 9.32C58.11 8.73 59.3 8.43 60.5 8.44C61.83 8.42 63.14 8.76 64.3 9.43C65.44 10.1 66.35 11.11 66.89 12.31C67.55 11.14 68.5 10.17 69.64 9.47C71.08 8.64 72.76 8.29 74.42 8.48C76.07 8.66 77.63 9.38 78.85 10.52C80.26 11.96 80.97 14.07 80.97 16.83L80.97 30.81L77.62 30.81L77.62 17.01C77.62 15.27 77.2 13.96 76.35 13.06C75.92 12.6 75.39 12.24 74.81 12.01C74.22 11.77 73.6 11.67 72.97 11.7C72.28 11.68 71.6 11.79 70.96 12.03C70.32 12.28 69.74 12.65 69.24 13.12C68.27 14.05 67.78 15.39 67.78 17.14L67.78 30.79L64.49 30.79L64.49 17.01C64.49 15.27 64.07 13.96 63.22 13.06C62.78 12.6 62.26 12.25 61.68 12.01C61.1 11.78 60.48 11.67 59.85 11.7C59.16 11.68 58.46 11.8 57.82 12.07C57.18 12.33 56.6 12.73 56.12 13.23C55.14 14.24 54.65 15.65 54.64 17.47L54.65 30.79Z" fill="#202020" fill-opacity="1.000000" fill-rule="nonzero"/>
		<path id="Vector" d="M81.01 11.83L81.01 8.77L84.64 8.77L84.64 4.88L88 4.88L88 8.77L95.83 8.77L95.83 11.83L88 11.83L88 24C88 25.36 88.29 26.35 88.89 26.99C89.48 27.63 90.4 27.94 91.65 27.92C92.75 27.87 93.84 27.61 94.85 27.16L95.62 30.06C94.22 30.73 92.7 31.1 91.15 31.13C89.09 31.13 87.49 30.56 86.35 29.41C85.21 28.25 84.65 26.64 84.64 24.56L84.64 11.83L81.01 11.83Z" fill="#202020" fill-opacity="1.000000" fill-rule="nonzero"/>
	</g>
</svg>
