<svg width="40.000000" height="24.000000" viewBox="0 0 40 24" fill="none" xmlns="http://www.w3.org/2000/svg" xmlns:xlink="http://www.w3.org/1999/xlink">
	<desc>
			Created with Pixso.
	</desc>
	<defs/>
	<path id="Vector" d="M40 11.98C40 18.56 34.64 23.96 28 23.96C21.41 23.96 16 18.56 16 11.98C16 5.4 21.35 0 27.93 0C34.64 0 40 5.4 40 11.98Z" fill="#F9B50B" fill-opacity="1.000000" fill-rule="evenodd"/>
	<path id="Vector" d="M23.93 12.04C23.93 11.18 23.81 10.32 23.69 9.52L16.3 9.52C16.37 9.09 16.49 8.72 16.61 8.23L23.19 8.23C23.07 7.8 22.89 7.37 22.7 6.94L17.1 6.94C17.29 6.51 17.53 6.14 17.78 5.65L22.03 5.65C21.78 5.22 21.47 4.79 21.1 4.36L18.76 4.36C19.13 3.93 19.5 3.56 20 3.13C17.9 1.16 15.07 0 11.93 0C5.41 0.18 0 5.4 0 11.98C0 18.56 5.35 23.96 12 23.96C15.13 23.96 17.9 22.74 20.06 20.83C20.49 20.46 20.86 20.03 21.29 19.54L18.83 19.54C18.52 19.17 18.21 18.74 17.96 18.31L22.15 18.31C22.39 17.94 22.64 17.51 22.83 17.02L17.23 17.02C17.04 16.65 16.86 16.22 16.73 15.73L23.32 15.73C23.69 14.62 23.93 13.39 23.93 12.04Z" fill="#C8191C" fill-opacity="1.000000" fill-rule="evenodd"/>
	<path id="Vector" d="M16.24 15.05L16.42 13.95C16.37 13.95 16.24 14.01 16.12 14.01C15.69 14.01 15.63 13.76 15.69 13.64L16.06 11.43L16.73 11.43L16.92 10.2L16.3 10.2L16.42 9.46L15.14 9.46C15.14 9.46 14.4 13.64 14.4 14.13C14.4 14.87 14.83 15.24 15.44 15.24C15.81 15.24 16.12 15.11 16.24 15.05Z" fill="#F8F7F3" fill-opacity="1.000000" fill-rule="nonzero"/>
	<path id="Vector" d="M16.67 13.02C16.67 14.81 17.9 15.24 18.89 15.24C19.81 15.24 20.24 15.05 20.24 15.05L20.49 13.82C20.49 13.82 19.81 14.13 19.14 14.13C17.72 14.13 17.96 13.08 17.96 13.08L20.55 13.08C20.55 13.08 20.73 12.29 20.73 11.92C20.73 11.12 20.3 10.07 18.89 10.07C17.66 10.01 16.67 11.42 16.67 13.02ZM18.89 11.18C19.57 11.18 19.44 11.98 19.44 12.04L18.03 12.04C18.09 11.98 18.21 11.18 18.89 11.18Z" fill="#F8F7F3" fill-opacity="1.000000" fill-rule="nonzero"/>
	<path id="Vector" d="M26.95 15.05L27.19 13.64C27.19 13.64 26.58 13.95 26.08 13.95C25.23 13.95 24.8 13.27 24.8 12.47C24.8 10.93 25.53 10.14 26.46 10.14C27.07 10.14 27.62 10.5 27.62 10.5L27.81 9.15C27.81 9.15 27.07 8.84 26.33 8.84C24.85 8.84 23.44 10.14 23.44 12.53C23.44 14.13 24.18 15.17 25.72 15.17C26.27 15.24 26.95 15.05 26.95 15.05Z" fill="#F8F7F3" fill-opacity="1.000000" fill-rule="nonzero"/>
	<path id="Vector" d="M9.29 10.01C8.42 10.01 7.75 10.26 7.75 10.26L7.57 11.36C7.57 11.36 8.12 11.12 8.98 11.12C9.41 11.12 9.78 11.18 9.78 11.55C9.78 11.8 9.72 11.86 9.72 11.86L9.16 11.86C8.06 11.86 6.89 12.29 6.89 13.76C6.89 14.93 7.63 15.17 8.12 15.17C8.98 15.17 9.41 14.62 9.47 14.62L9.41 15.11L10.46 15.11L10.95 11.61C10.95 10.08 9.72 10.01 9.29 10.01ZM9.53 12.84C9.53 13.02 9.41 14.07 8.67 14.07C8.3 14.07 8.18 13.76 8.18 13.58C8.18 13.27 8.37 12.84 9.35 12.84C9.47 12.84 9.53 12.84 9.53 12.84Z" fill="#F8F7F3" fill-opacity="1.000000" fill-rule="nonzero"/>
	<path id="Vector" d="M12.18 15.17C12.49 15.17 14.09 15.24 14.09 13.51C14.09 11.92 12.55 12.23 12.55 11.61C12.55 11.3 12.8 11.18 13.23 11.18C13.41 11.18 14.09 11.24 14.09 11.24L14.27 10.07C14.27 10.07 13.84 9.95 13.04 9.95C12.12 9.95 11.13 10.32 11.13 11.61C11.13 13.08 12.73 12.96 12.73 13.51C12.73 13.88 12.3 13.95 12 13.95C11.44 13.95 10.83 13.76 10.83 13.76L10.64 14.93C10.76 15.05 11.13 15.17 12.18 15.17Z" fill="#F8F7F3" fill-opacity="1.000000" fill-rule="nonzero"/>
	<path id="Vector" d="M37.53 9.03L37.29 10.75C37.29 10.75 36.8 10.14 36.06 10.14C34.89 10.14 33.9 11.55 33.9 13.21C33.9 14.25 34.39 15.3 35.5 15.3C36.24 15.3 36.73 14.81 36.73 14.81L36.67 15.24L37.96 15.24L38.89 9.15L37.53 9.03ZM36.92 12.35C36.92 13.02 36.61 13.95 35.87 13.95C35.44 13.95 35.19 13.58 35.19 12.9C35.19 11.86 35.63 11.24 36.24 11.24C36.67 11.3 36.92 11.61 36.92 12.35Z" fill="#F8F7F3" fill-opacity="1.000000" fill-rule="nonzero"/>
	<path id="Vector" d="M2.33 15.11L3.07 10.57L3.19 15.11L4.05 15.11L5.72 10.57L5.04 15.11L6.39 15.11L7.44 9.03L5.35 9.03L4.05 12.78L4 9.03L2.15 9.03L1.1 15.11L2.33 15.11Z" fill="#F8F7F3" fill-opacity="1.000000" fill-rule="nonzero"/>
	<path id="Vector" d="M22.03 15.11C22.39 13.02 22.46 11.3 23.38 11.61C23.5 10.81 23.69 10.44 23.81 10.14L23.57 10.14C23.01 10.14 22.52 10.87 22.52 10.87L22.64 10.2L21.41 10.2L20.61 15.11L22.03 15.11Z" fill="#F8F7F3" fill-opacity="1.000000" fill-rule="nonzero"/>
	<path id="Vector" d="M29.9 10.01C29.04 10.01 28.37 10.26 28.37 10.26L28.18 11.36C28.18 11.36 28.73 11.12 29.6 11.12C30.03 11.12 30.4 11.18 30.4 11.55C30.4 11.8 30.33 11.86 30.33 11.86L29.78 11.86C28.67 11.86 27.5 12.29 27.5 13.76C27.5 14.93 28.24 15.17 28.73 15.17C29.6 15.17 30.03 14.62 30.09 14.62L30.03 15.11L31.19 15.11L31.69 11.61C31.69 10.08 30.33 10.01 29.9 10.01ZM30.21 12.84C30.21 13.02 30.09 14.07 29.35 14.07C28.98 14.07 28.86 13.76 28.86 13.58C28.86 13.27 29.04 12.84 30.03 12.84C30.15 12.84 30.15 12.84 30.21 12.84Z" fill="#F8F7F3" fill-opacity="1.000000" fill-rule="nonzero"/>
	<path id="Vector" d="M32.67 15.11C33.04 13.02 33.1 11.3 34.03 11.61C34.15 10.81 34.33 10.44 34.46 10.14L34.21 10.14C33.66 10.14 33.17 10.87 33.17 10.87L33.29 10.2L32.06 10.2L31.26 15.11L32.67 15.11Z" fill="#F8F7F3" fill-opacity="1.000000" fill-rule="nonzero"/>
</svg>
