<svg width="24.000000" height="24.000000" viewBox="0 0 24 24" fill="none" xmlns="http://www.w3.org/2000/svg" xmlns:xlink="http://www.w3.org/1999/xlink">
	<desc>
			Created with Pixso.
	</desc>
	<defs/>
	<path id="Vector" d="M4 0C1.78 0 0 1.79 0 4L0 20C0 22.2 1.78 24 4 24L20 24C22.21 24 24 22.2 24 20L24 4C24 1.79 22.21 0 20 0L4 0ZM17.62 7.87C17.72 6.72 16.5 7.19 16.5 7.19C15.6 7.56 14.67 7.94 13.74 8.33C10.84 9.5 7.85 10.73 5.3 11.93C3.92 12.43 4.73 12.94 4.73 12.94L6.92 13.62C7.94 13.92 8.48 13.58 8.48 13.58L13.19 10.37C14.88 9.22 14.48 10.17 14.07 10.57L10.53 13.96C9.99 14.43 10.26 14.83 10.5 15.04C11.17 15.63 12.81 16.71 13.53 17.18C13.72 17.3 13.84 17.38 13.87 17.41C14.04 17.54 14.95 18.15 15.56 18.01C16.16 17.88 16.23 17.1 16.23 17.1L17.04 11.79C17.16 10.87 17.3 9.99 17.41 9.28C17.52 8.61 17.6 8.1 17.62 7.87Z" fill="#F8F7F3" fill-opacity="1.000000" fill-rule="evenodd"/>
</svg>
