<svg width="58.000000" height="18.000000" viewBox="0 0 58 18" fill="none" xmlns="http://www.w3.org/2000/svg" xmlns:xlink="http://www.w3.org/1999/xlink">
	<desc>
			Created with Pixso.
	</desc>
	<defs/>
	<path id="Vector" d="M54.08 -0.68L50.42 -0.68C49.32 -0.68 48.47 -0.35 47.96 0.74L40.98 16.31L45.92 16.31C45.92 16.31 46.76 14.23 46.94 13.73C47.45 13.73 52.3 13.73 52.98 13.73C53.15 14.31 53.57 16.23 53.57 16.23L58 16.23L54.08 -0.68ZM48.3 10.23C48.72 9.23 50.17 5.48 50.17 5.48C50.17 5.57 50.59 4.48 50.76 3.9L51.1 5.4C51.1 5.4 52.04 9.48 52.21 10.31L48.3 10.31L48.3 10.23Z" fill="#3362AB" fill-opacity="1.000000" fill-rule="nonzero"/>
	<path id="Vector" d="M41.17 11.16C41.17 14.71 37.98 17.08 33.03 17.08C30.94 17.08 28.92 16.66 27.83 16.15L28.51 12.26L29.09 12.51C30.6 13.19 31.61 13.45 33.45 13.45C34.8 13.45 36.22 12.94 36.22 11.75C36.22 10.99 35.63 10.49 33.79 9.64C32.03 8.79 29.68 7.44 29.68 4.99C29.68 1.6 32.95 -0.68 37.56 -0.68C39.32 -0.68 40.83 -0.34 41.76 0.08L41.08 3.8L40.75 3.46C39.91 3.13 38.82 2.79 37.23 2.79C35.47 2.87 34.63 3.63 34.63 4.31C34.63 5.07 35.63 5.66 37.23 6.42C39.91 7.69 41.17 9.13 41.17 11.16Z" fill="#3362AB" fill-opacity="1.000000" fill-rule="nonzero"/>
	<path id="Vector" d="M0 -0.34L0.08 -0.68L7.24 -0.68C8.24 -0.68 8.99 -0.34 9.24 0.79L10.82 8.59C9.24 4.43 5.57 1.05 0 -0.34Z" fill="#F9B50B" fill-opacity="1.000000" fill-rule="evenodd"/>
	<path id="Vector" d="M20.87 -0.6L13.67 16.31L8.78 16.31L4.64 2.15C7.62 4.07 10.1 7.07 11.01 9.15L11.51 10.9L15.99 -0.68L20.87 -0.68L20.87 -0.6Z" fill="#3362AB" fill-opacity="1.000000" fill-rule="nonzero"/>
	<path id="Vector" d="M23.11 -0.68L27.83 -0.68L24.83 16.31L20.1 16.31L23.11 -0.68Z" fill="#3362AB" fill-opacity="1.000000" fill-rule="nonzero"/>
</svg>
