<svg width="24.000000" height="24.000000" viewBox="0 0 24 24" fill="none" xmlns="http://www.w3.org/2000/svg" xmlns:xlink="http://www.w3.org/1999/xlink">
	<desc>
			Created with Pixso.
	</desc>
	<defs/>
	<path id="Vector" d="M0 4C0 1.79 1.78 0 4 0L20 0C22.21 0 24 1.79 24 4L24 20C24 22.2 22.21 24 20 24L4 24C1.78 24 0 22.2 0 20L0 4ZM18.06 5.92C17.3 5.15 16.39 4.54 15.39 4.12C14.38 3.7 13.31 3.49 12.22 3.5C7.67 3.5 3.96 7.2 3.96 11.75C3.96 13.21 4.35 14.63 5.06 15.88L3.89 20.16L8.27 19.01C9.48 19.67 10.83 20.02 12.22 20.02C16.77 20.02 20.48 16.31 20.48 11.76C20.48 9.55 19.62 7.48 18.06 5.92ZM12.22 18.62C10.99 18.62 9.78 18.29 8.72 17.66L8.47 17.51L5.87 18.19L6.56 15.66L6.39 15.4C5.71 14.31 5.35 13.04 5.35 11.75C5.35 7.97 8.43 4.89 12.21 4.89C14.05 4.89 15.77 5.6 17.06 6.9C17.7 7.54 18.21 8.3 18.55 9.13C18.9 9.97 19.07 10.86 19.07 11.76C19.08 15.55 16 18.62 12.22 18.62ZM15.99 13.49C15.94 13.46 15.83 13.41 15.71 13.35C15.33 13.17 14.72 12.87 14.58 12.81C14.39 12.75 14.25 12.71 14.11 12.91C13.97 13.12 13.58 13.59 13.46 13.72C13.35 13.86 13.22 13.88 13.01 13.77C12.98 13.75 12.94 13.74 12.89 13.72C12.61 13.59 12.02 13.34 11.35 12.75C10.74 12.19 10.33 11.52 10.2 11.31C10.08 11.1 10.19 11 10.3 10.89C10.36 10.83 10.43 10.74 10.5 10.65C10.54 10.61 10.57 10.57 10.6 10.53C10.69 10.42 10.74 10.34 10.8 10.22C10.8 10.21 10.81 10.2 10.81 10.19C10.88 10.05 10.85 9.93 10.8 9.83C10.75 9.73 10.33 8.71 10.16 8.3C10.01 7.94 9.86 7.94 9.74 7.94C9.73 7.94 9.71 7.94 9.69 7.94L9.3 7.94C9.16 7.94 8.94 7.99 8.75 8.19C8.73 8.21 8.71 8.23 8.7 8.25C8.48 8.48 8.03 8.98 8.03 9.92C8.03 10.93 8.76 11.91 8.87 12.05L8.87 12.05C8.87 12.06 8.88 12.07 8.89 12.08C9.09 12.38 10.42 14.32 12.39 15.17C12.89 15.39 13.27 15.51 13.57 15.6C14.06 15.76 14.51 15.74 14.87 15.69C15.27 15.63 16.1 15.19 16.26 14.7C16.44 14.22 16.44 13.81 16.38 13.72C16.33 13.65 16.24 13.6 16.1 13.54C16.07 13.52 16.03 13.51 15.99 13.49Z" fill="#F8F7F3" fill-opacity="1.000000" fill-rule="evenodd"/>
</svg>
