<svg width="24.000000" height="24.000000" viewBox="0 0 24 24" fill="none" xmlns="http://www.w3.org/2000/svg" xmlns:xlink="http://www.w3.org/1999/xlink">
	<desc>
			Created with Pixso.
	</desc>
	<defs/>
	<path id="Vector" d="M4 0C1.78 0 0 1.79 0 4L0 20C0 22.2 1.78 24 4 24L20 24C22.21 24 24 22.2 24 20L24 4C24 1.79 22.21 0 20 0L4 0ZM18.85 7.91C19.34 7.91 19.45 8.17 19.34 8.52L19.34 8.52C19.17 9.33 17.73 11.47 17.28 12.13C17.2 12.26 17.15 12.33 17.15 12.33C16.98 12.62 16.91 12.75 17.15 13.07C17.24 13.19 17.42 13.37 17.63 13.58C17.84 13.79 18.08 14.03 18.28 14.25C18.98 15.05 19.52 15.73 19.66 16.19C19.79 16.66 19.57 16.9 19.09 16.9L17.45 16.9C17.02 16.9 16.8 16.64 16.32 16.11C16.11 15.88 15.86 15.6 15.53 15.26C14.56 14.32 14.13 14.19 13.89 14.19C13.56 14.19 13.46 14.27 13.46 14.75L13.46 16.24C13.46 16.64 13.34 16.88 12.29 16.88C10.56 16.88 8.64 15.82 7.28 13.85C5.25 10.97 4.69 8.79 4.69 8.36C4.69 8.12 4.78 7.9 5.25 7.9L6.91 7.9C7.32 7.9 7.48 8.07 7.64 8.54C8.44 10.89 9.8 12.96 10.35 12.96C10.56 12.96 10.65 12.86 10.65 12.33L10.65 9.9C10.61 9.21 10.37 8.9 10.2 8.68C10.09 8.54 10 8.43 10 8.28C10 8.09 10.16 7.9 10.41 7.9L12.99 7.9C13.34 7.9 13.46 8.09 13.46 8.5L13.46 11.79C13.46 12.14 13.61 12.27 13.72 12.27C13.92 12.27 14.1 12.14 14.48 11.75C15.66 10.42 16.5 8.38 16.5 8.38C16.61 8.14 16.8 7.91 17.21 7.91L18.85 7.91Z" fill="#F8F7F3" fill-opacity="1.000000" fill-rule="evenodd"/>
</svg>
